<?xml version="1.0" encoding="UTF-8"?>
<svg width="315px" height="315px" viewBox="0 0 315 315" version="1.1" xmlns="http://www.w3.org/2000/svg" xmlns:xlink="http://www.w3.org/1999/xlink">
    <title>画板备份 3</title>
    <g id="画板备份-3" stroke="none" stroke-width="1" fill="none" fill-rule="evenodd">
        <g id="编组备份-3" transform="translate(0.000000, 43.000000)" fill-rule="nonzero">
            <path d="M313.72598,108.634313 L257.31512,74.5917533 L240.56964,53.7842333 C240.264379,53.4054856 239.822902,53.1613812 239.33982,53.1042333 L208.34468,49.4942333 C208.28868,49.4906133 208.23526,49.5086933 208.1801,49.5086933 C208.092533,49.5102037 208.00519,49.5180643 207.91876,49.5322133 C207.677095,49.5995324 207.435654,49.6676527 207.19444,49.7365733 L189.01478,60.3910133 L161.79232,67.7174133 L80.7361602,9.79639333 C80.7135602,9.78011333 80.6837202,9.78193333 80.6601602,9.76745333 C80.4281105,9.60896754 80.1625889,9.50622361 79.8843002,9.46723333 L79.8553602,9.46361333 L79.8318402,9.46001333 L2.05648021,0.00048807114 C1.99242667,0.00048807114 1.92842392,0.00483904423 1.86478021,0.0120733253 C1.83856021,0.0120733253 1.81232021,0.00665332531 1.78610021,0.00665332531 C1.75632021,0.00845332531 1.72642021,-0.00238667469 1.69658021,0.00048807114 C1.62432021,0.00665332531 1.55732021,0.0230133253 1.48498021,0.0355933253 C1.37801515,0.0580679047 1.27329697,0.0901514021 1.17210021,0.131453325 C1.13502021,0.144113325 1.09704021,0.153153325 1.06178021,0.167613325 C0.996660213,0.198353325 0.938800213,0.232713325 0.877300213,0.268893325 C0.793090793,0.320787868 0.71325294,0.379462269 0.638580213,0.444333325 C0.589763683,0.485733977 0.543272776,0.529801188 0.499320213,0.576333325 C0.474000213,0.603473325 0.439640213,0.616133325 0.416120213,0.645013325 C0.395320213,0.670393325 0.389900213,0.701133325 0.370900213,0.726453325 C0.321543092,0.79071207 0.276823381,0.858403182 0.237080213,0.929013325 C0.218980213,0.959773325 0.190040213,0.981473325 0.173780213,1.01401333 C0.152060213,1.05743333 0.152060213,1.10625333 0.133980213,1.15147333 C0.103965113,1.22208776 0.0785781149,1.294581 0.0579802132,1.36849333 C0.0489802132,1.40467333 0.0254802132,1.42999333 0.0183202132,1.46615333 C0.0128202132,1.49329333 0.0218602132,1.52041333 0.0173402132,1.54755333 C0.00605433692,1.63147426 0,1.71607809 0,1.80075333 C0,1.8846789 0,1.96871062 0.0110602132,2.05213333 C0.0174002132,2.10639333 0.0164802132,2.16065333 0.0282402132,2.21491333 C0.0489985263,2.29254035 0.0749845199,2.36867417 0.106020213,2.44279333 C0.133438363,2.52712786 0.166980968,2.60934668 0.206380213,2.68879333 C0.229900213,2.73401333 0.243460213,2.77921333 0.269680213,2.82079333 C0.322124293,2.89222261 0.38018169,2.95935545 0.443300213,3.02155333 C0.477242122,3.07531591 0.514055456,3.12721109 0.553580213,3.17701333 L115.20194,112.631233 L102.91818,129.758313 C102.787719,129.944189 102.692968,130.152708 102.63876,130.373233 C102.63604,130.384073 102.6261,130.391233 102.62338,130.402153 L102.62066,130.413013 L102.61976,130.418433 L97.0258802,153.609633 C97.0150402,153.654853 97.0322202,153.698253 97.0249802,153.743453 C97.0051541,153.806341 96.9891252,153.870363 96.9769802,153.935173 L94.1031602,202.422713 L94.1031602,202.424533 C94.0822723,202.789556 94.1697359,203.152609 94.3545602,203.468073 L109.24988,228.871133 C109.582097,229.437943 110.189846,229.786292 110.84684,229.786292 C110.921842,229.786292 110.996787,229.781947 111.0711,229.771793 C111.80318,229.683818 112.412987,229.169247 112.62284,228.462393 L134.68648,154.090713 L175.91716,139.133893 C176.240215,139.01823 176.524153,138.813899 176.73644,138.544313 L207.15832,100.248013 L251.42288,87.9515933 L312.08748,111.940353 C312.304728,112.025609 312.535924,112.069765 312.7693,112.070573 C313.60071,112.070929 314.330359,111.516924 314.553361,110.71598 C314.776364,109.915036 314.438005,109.063672 313.72604,108.634313 L313.72598,108.634313 Z" id="形状"></path>
            <g id="编组-3" transform="translate(11.215040, 6.437893)">
                <polygon id="路径" fill="#FFB506" points="121.57878 143.6161 96.79328 124.7944 154.81472 98.23204 125.22846 138.63352"></polygon>
                <polygon id="路径" fill="#FFBF26" points="107.60944 103.79512 97.17944 75.14388 153.53144 93.28376 120.96206 100.73872"></polygon>
                <polygon id="路径" fill="#FF8500" points="45.57214 33.87438 0 0.05788 65.78102 19.17258 89.06626 66.14816"></polygon>
                <polygon id="路径" fill="#FFA500" points="95.19908 70.17764 71.36044 22.08798 144.57826 62.31398"></polygon>
                <polygon id="路径" fill="#FFBF26" points="102.0879 72.8326 148.9604 65.37048 151.2428 72.07662 157.57458 90.69396 123.3177 79.66712"></polygon>
                <polygon id="路径" fill="#FFCE00" points="153.68074 67.74692 188.96128 90.57278 161.822 91.67602"></polygon>
                <polygon id="路径" fill="#FFCE00" points="158.61812 66.52796 202.63128 73.6356 194.17988 89.53648"></polygon>
                <polygon id="路径" fill="#FFA500" points="69.0527 16.58996 69.30772 14.20996 69.94886 8.21638 123.6315 46.57772"></polygon>
                <polygon id="路径" fill="#FFBF26" points="143.31408 99.42208 98.77824 119.81182 107.52444 107.61486"></polygon>
                <polygon id="路径" fill="#FFAD16" points="94.34364 127.58682 116.73002 144.5855 111.66966 144.78806 89.985 145.65606"></polygon>
                <polygon id="路径" fill="#FFA500" points="89.35924 149.39082 118.15064 148.23882 86.95204 190.03112"></polygon>
                <polygon id="路径" fill="#FFE63D" points="237.94166 63.9236 210.97056 50.04652 206.83256 47.91784 226.94376 50.25812"></polygon>
                <polygon id="路径" fill="#FFD734" points="196.9741 47.00994 238.09086 68.16652 207.66814 70.21742 205.94638 70.33318 182.12942 55.70912"></polygon>
                <polygon id="路径" fill="#FFD111" points="178.24102 57.6696 196.53282 68.90078 159.01962 62.84208"></polygon>
                <polygon id="路径" fill="#FF8500" points="65.52058 14.7868 65.47356 15.22448 13.08314 0 66.4086 6.4837"></polygon>
                <polygon id="路径" fill="#FF9C16" points="13.50092 14.68734 92.59476 73.3788 101.97938 99.15804"></polygon>
                <polygon id="路径" fill="#FF9700" points="86.95566 196.21632 117.23008 155.66294 99.07128 216.87734"></polygon>
                <polygon id="路径" fill="#FFC70C" points="162.94602 129.39358 127.05148 142.41512 161.48288 95.39984 162.74616 95.3492 190.89914 94.20438"></polygon>
                <path d="M240.9927,77.84232 C240.775678,77.7562626 240.544322,77.7120776 240.31086,77.7121 C240.143268,77.7115779 239.976442,77.7347196 239.81532,77.78084 L198.52766,89.25084 L206.63366,74.00104 L244.40186,71.45458 L281.58586,93.89522 L240.9927,77.84232 Z" id="路径" fill="#FFE63D"></path>
            </g>
        </g>
    </g>
</svg>