<svg id="图层_1" data-name="图层 1" xmlns="http://www.w3.org/2000/svg" xmlns:xlink="http://www.w3.org/1999/xlink" viewBox="0 0 1360 480"><defs><style>.cls-1,.cls-2{fill:none;}.cls-2{clip-path:url(#clip-path);}.cls-3{fill:#4f4f4f;}.cls-4{clip-path:url(#clip-path-20);}.cls-5{fill:#fdb300;}.cls-6{clip-path:url(#clip-path-21);}.cls-7{fill:#fdbd20;}.cls-8{clip-path:url(#clip-path-22);}.cls-9{fill:#fc8300;}.cls-10{clip-path:url(#clip-path-23);}.cls-11{fill:#ffa300;}.cls-12{clip-path:url(#clip-path-24);}.cls-13{clip-path:url(#clip-path-25);}.cls-14{fill:#fccc00;}.cls-15{clip-path:url(#clip-path-26);}.cls-16{clip-path:url(#clip-path-27);}.cls-17{clip-path:url(#clip-path-28);}.cls-18{clip-path:url(#clip-path-29);}.cls-19{fill:#ffab12;}.cls-20{clip-path:url(#clip-path-30);}.cls-21{clip-path:url(#clip-path-31);}.cls-22{fill:#fde53c;}.cls-23{clip-path:url(#clip-path-32);}.cls-24{fill:#fdd630;}.cls-25{clip-path:url(#clip-path-33);}.cls-26{fill:#ffd006;}.cls-27{clip-path:url(#clip-path-34);}.cls-28{clip-path:url(#clip-path-35);}.cls-29{fill:#fd9a14;}.cls-30{clip-path:url(#clip-path-36);}.cls-31{fill:#fc9500;}.cls-32{clip-path:url(#clip-path-37);}.cls-33{fill:#fdc500;}.cls-34{clip-path:url(#clip-path-38);}</style><clipPath id="clip-path"><rect class="cls-1" x="-49" y="-12" width="1480" height="504"/></clipPath><clipPath id="clip-path-20"><polygon class="cls-2" points="264.59 312.11 215.02 274.46 331.06 221.34 271.89 302.14 264.59 312.11 264.59 312.11"/></clipPath><clipPath id="clip-path-21"><polygon class="cls-2" points="236.65 232.47 215.79 175.16 328.49 211.44 263.35 226.35 236.65 232.47 236.65 232.47"/></clipPath><clipPath id="clip-path-22"><polygon class="cls-2" points="112.57 92.63 21.43 24.99 152.99 63.22 199.56 157.17 112.57 92.63 112.57 92.63"/></clipPath><clipPath id="clip-path-23"><polygon class="cls-2" points="211.83 165.23 164.15 69.05 310.59 149.5 211.83 165.23 211.83 165.23"/></clipPath><clipPath id="clip-path-24"><polygon class="cls-2" points="225.61 170.54 319.35 155.62 323.92 169.03 336.58 206.26 268.07 184.21 225.61 170.54 225.61 170.54"/></clipPath><clipPath id="clip-path-25"><polygon class="cls-2" points="328.79 160.37 399.35 206.02 345.07 208.23 328.79 160.37 328.79 160.37"/></clipPath><clipPath id="clip-path-26"><polygon class="cls-2" points="338.67 157.93 426.69 172.15 409.79 203.95 338.67 157.93 338.67 157.93"/></clipPath><clipPath id="clip-path-27"><polygon class="cls-2" points="159.53 58.06 160.05 53.3 161.33 41.31 268.69 118.03 159.53 58.06 159.53 58.06"/></clipPath><clipPath id="clip-path-28"><polygon class="cls-2" points="308.06 223.72 218.99 264.5 236.48 240.1 308.06 223.72 308.06 223.72"/></clipPath><clipPath id="clip-path-29"><polygon class="cls-2" points="210.12 280.05 254.89 314.05 244.77 314.45 201.4 316.19 210.12 280.05 210.12 280.05"/></clipPath><clipPath id="clip-path-30"><polygon class="cls-2" points="200.15 323.66 257.73 321.35 195.33 404.94 200.15 323.66 200.15 323.66"/></clipPath><clipPath id="clip-path-31"><polygon class="cls-2" points="497.31 152.72 443.37 124.97 435.1 120.71 475.32 125.39 497.31 152.72 497.31 152.72"/></clipPath><clipPath id="clip-path-32"><polygon class="cls-2" points="415.38 118.9 497.61 161.21 436.77 165.31 433.32 165.54 385.69 136.29 415.38 118.9 415.38 118.9"/></clipPath><clipPath id="clip-path-33"><polygon class="cls-2" points="377.91 140.22 414.5 162.68 339.47 150.56 377.91 140.22 377.91 140.22"/></clipPath><clipPath id="clip-path-34"><polygon class="cls-2" points="152.47 54.45 152.38 55.33 47.6 24.88 154.25 37.84 152.47 54.45 152.47 54.45"/></clipPath><clipPath id="clip-path-35"><polygon class="cls-2" points="48.43 54.25 206.62 171.63 225.39 223.19 48.43 54.25 48.43 54.25"/></clipPath><clipPath id="clip-path-36"><polygon class="cls-2" points="195.34 417.31 255.89 336.2 219.57 458.63 195.34 417.31 195.34 417.31"/></clipPath><clipPath id="clip-path-37"><polygon class="cls-2" points="347.32 283.66 275.53 309.71 344.4 215.68 346.92 215.57 403.23 213.28 347.32 283.66 347.32 283.66"/></clipPath><clipPath id="clip-path-38"><path class="cls-2" d="M503.42,180.56a3.79,3.79,0,0,0-1.37-.26,3.7,3.7,0,0,0-1,.14l-82.57,22.94,16.21-30.5,75.53-5.1,74.37,44.89-81.18-32.11Z"/></clipPath></defs><polygon class="cls-3" points="592.1 434 642.79 434 578.37 342.39 643.84 249.2 593.95 249.2 551.97 309.66 550.92 309.66 508.94 249.2 459.04 249.2 524.78 342.39 460.36 434 510.79 434 550.92 375.13 551.97 375.13 592.1 434 592.1 434"/><path class="cls-3" d="M722.78,437.43q22.44,0,39.34-9.24a64.2,64.2,0,0,0,26.13-26.27q9.24-17,9.24-40.26,0-35.64-20.06-54.64t-54.65-19q-34.85,0-54.91,19T647.8,361.66q0,23.23,9.24,40.26a64,64,0,0,0,26.27,26.27q17,9.24,39.47,9.24Zm-33.26-75.77q0-21.11,9-32.07t24.29-11q15.32,0,24.16,11t8.84,32.07q0,20.34-9.11,32.74t-23.89,12.41q-14.79,0-24-12.41t-9.24-32.74ZM875.9,437.17q21.92-1.07,35.9-13.33t14-31.82q0-13.18-5.81-21.64a43.06,43.06,0,0,0-16-13.73,167.18,167.18,0,0,0-26-10.3q-11.09-3.42-17-7.65t-5.14-9.77q1.57-9.51,19.53-9.51a74.09,74.09,0,0,1,19.93,3.3,117.75,117.75,0,0,1,19.94,7.53V296.19a89.87,89.87,0,0,0-20.33-5.94,132.62,132.62,0,0,0-24-2.24,78.24,78.24,0,0,0-29.56,5.54q-13.74,5.55-20.07,15.18a38.81,38.81,0,0,0-6.33,21.78q0,11.63,4.88,19.14t14.39,13.47q9.49,5.94,25.61,10.42,14.51,4,19.8,8.19t4,12.41q-.54,3.17-4.23,6.2t-11.88,3.56q-11.62.8-26.79-4.35a95.79,95.79,0,0,1-26-13.07v38a96.35,96.35,0,0,0,28.65,10.16,132.34,132.34,0,0,0,32.6,2.51Zm188-43.83a43.58,43.58,0,0,1-14.91,7.79,61.82,61.82,0,0,1-18.61,2.77,63,63,0,0,1-24-4.62,44.43,44.43,0,0,1-18.48-13.59q-7.12-9-7.13-21.91,0-22.71,13.73-32.61t34.59-9.9a83.37,83.37,0,0,1,33,6.87V295.66a126,126,0,0,0-41.72-7.39q-22.69,0-41,9.11a69.54,69.54,0,0,0-28.91,26.27q-10.56,17.16-10.56,40.13,0,21.92,11.09,38.67a73.26,73.26,0,0,0,30,25.87,93.66,93.66,0,0,0,41.31,9.11,110.82,110.82,0,0,0,41.71-8.18V393.34Zm81.84,44.09q22.44,0,38.81-12.93a42.74,42.74,0,0,0,3.17,9.5h39.6q-5.28-11.88-5.28-33.26V291.44h-42.24v9a67.73,67.73,0,0,0-17-9.11,52.8,52.8,0,0,0-18.08-3.3q-19.55,0-34.19,9.5a62.71,62.71,0,0,0-22.7,26.53q-8.05,17-8.06,38.94,0,22.18,8.06,38.81a62.58,62.58,0,0,0,23,26.14q14.92,9.49,35,9.5ZM1120.1,363a51.39,51.39,0,0,1,4.88-22.57,41.16,41.16,0,0,1,12.94-16,28.61,28.61,0,0,1,17-5.81,45.07,45.07,0,0,1,14.39,2.64q7.79,2.64,13.6,11.88v59.14q-5.82,9.24-13.73,12a43.62,43.62,0,0,1-14.26,2.77,28.19,28.19,0,0,1-17-5.94,42.44,42.44,0,0,1-12.94-16A49.94,49.94,0,0,1,1120.1,363Zm128.3-71.54V434h42.24V337.38a35.37,35.37,0,0,1,15-10.43,54.58,54.58,0,0,1,19-3.3,57.94,57.94,0,0,1,14,1.85V293a40.85,40.85,0,0,0-12.41-1.84,48.6,48.6,0,0,0-19.14,4.09,47.62,47.62,0,0,0-16.5,11.48V291.44Z"/><g class="cls-4"><rect class="cls-5" x="213.02" y="219.34" width="120.04" height="94.77"/></g><g class="cls-6"><rect class="cls-7" x="213.79" y="173.16" width="116.7" height="61.3"/></g><g class="cls-8"><rect class="cls-9" x="19.43" y="22.99" width="182.13" height="136.18"/></g><g class="cls-10"><rect class="cls-11" x="162.15" y="67.05" width="150.44" height="100.18"/></g><g class="cls-12"><rect class="cls-7" x="223.61" y="153.62" width="114.97" height="54.65"/></g><g class="cls-13"><rect class="cls-14" x="326.79" y="158.37" width="74.56" height="51.86"/></g><g class="cls-15"><rect class="cls-14" x="336.67" y="155.93" width="92.03" height="50.02"/></g><g class="cls-16"><rect class="cls-11" x="157.54" y="39.31" width="113.16" height="80.72"/></g><g class="cls-17"><rect class="cls-7" x="216.99" y="221.72" width="93.07" height="44.78"/></g><g class="cls-18"><rect class="cls-19" x="199.4" y="278.05" width="57.49" height="40.14"/></g><g class="cls-20"><rect class="cls-11" x="193.33" y="319.35" width="66.4" height="87.58"/></g><g class="cls-21"><rect class="cls-22" x="433.1" y="118.71" width="66.22" height="36.01"/></g><g class="cls-23"><rect class="cls-24" x="383.69" y="116.9" width="115.92" height="50.65"/></g><g class="cls-25"><rect class="cls-26" x="337.47" y="138.21" width="79.03" height="26.46"/></g><g class="cls-27"><rect class="cls-9" x="45.6" y="22.88" width="110.65" height="34.45"/></g><g class="cls-28"><rect class="cls-29" x="46.43" y="52.25" width="180.96" height="172.94"/></g><g class="cls-30"><rect class="cls-31" x="193.34" y="334.2" width="64.55" height="126.43"/></g><g class="cls-32"><rect class="cls-33" x="273.53" y="211.28" width="131.7" height="100.42"/></g><g class="cls-34"><rect class="cls-22" x="416.49" y="165.78" width="170.12" height="48.88"/></g></svg>